# Blender v2.79 (sub 0) OBJ File: 'elephun.blend'
# www.blender.org
o Plane_Plane.001
v 0.008614 -0.309344 -2.642456
v 1.131117 -1.447112 2.025633
v 1.045625 -0.997113 -0.174367
v 1.034294 -0.647113 -1.674367
v 0.999940 0.052888 -1.774367
v 0.810078 2.030959 -1.974367
v 0.535878 -0.125468 -2.866321
v 0.624289 1.721843 -2.662757
v 1.284552 0.798013 2.740633
v 0.508856 -0.322681 3.920633
v 0.499940 -2.598351 2.764232
v 0.387789 -0.309344 -2.679638
v 0.999940 -2.596334 -0.776229
v 0.999940 -2.613481 -1.343568
v 0.610696 -2.613481 -1.369799
v 0.496398 -2.598351 1.964232
v 0.497622 -2.598351 2.764232
v 0.902897 -2.598351 2.017669
v 0.938822 -2.598351 2.592006
v 0.499940 -2.598351 1.964232
v 1.200134 1.935381 -1.416119
v -0.003025 -1.010954 -2.915299
v 0.337406 -0.759487 -3.182827
v 0.337406 -1.010954 -2.952482
v -0.010199 -1.488552 -3.231133
v 0.260166 -1.388552 -3.419899
v 0.260166 -1.488552 -3.268316
v 0.004372 -1.900327 -3.597137
v 0.181726 -1.863972 -3.605766
v 1.660087 1.081080 -0.803359
v 1.660087 2.081230 -0.943358
v 1.913101 2.081230 -0.943358
v -0.000060 1.567959 2.858944
v -0.000059 -1.447113 2.025633
v -0.000060 2.318942 -1.252593
v -0.000060 -0.647112 -1.674367
v -0.000060 2.359486 -1.952593
v -0.000060 0.052888 -1.774367
v -0.000060 1.713395 -3.052331
v -0.008733 -0.309344 -2.642456
v -0.000060 -0.186623 -3.281631
v -0.000060 -0.997112 -0.174367
v -0.000060 -0.247112 4.025633
v -0.000060 -0.947113 3.725633
v -1.131236 -1.447113 2.025633
v -1.045744 -0.997113 -0.174367
v -1.034414 -0.647113 -1.674367
v -1.000060 0.052887 -1.774367
v -0.810197 2.030959 -1.974367
v -0.535997 -0.125468 -2.866321
v -0.624408 1.721843 -2.662757
v -1.284672 0.798013 2.740633
v -0.508975 -0.322681 3.920633
v -0.500059 -2.598351 2.764232
v -0.387908 -0.309344 -2.679638
v -1.000059 -2.596334 -0.776229
v -1.000059 -2.613481 -1.343568
v -0.610815 -2.613481 -1.369799
v -0.496517 -2.598351 1.964232
v -0.497741 -2.598351 2.764232
v -0.903016 -2.598351 2.017669
v -0.938941 -2.598351 2.592006
v -0.500059 -2.598351 1.964232
v -1.200254 1.935381 -1.416119
v -0.000060 -0.492112 3.920633
v 0.002906 -1.010954 -2.915299
v -0.000060 -0.736767 -3.287891
v -0.337525 -0.759487 -3.182827
v -0.337525 -1.010954 -2.952482
v 0.010080 -1.488552 -3.231133
v -0.000060 -1.365832 -3.524963
v -0.260285 -1.388552 -3.419899
v -0.260285 -1.488552 -3.268316
v -0.004491 -1.900327 -3.597137
v -0.000059 -1.824562 -3.737132
v -0.181845 -1.863972 -3.605766
v -0.000060 -0.492112 3.920633
v -0.000060 -0.492112 3.920633
v -0.000060 -0.947113 3.725633
v -0.000060 -0.492112 3.920633
v -0.000060 -0.492112 3.920633
v -0.000060 -0.492112 3.920633
v -0.000060 -0.947113 3.725633
v -0.000060 -0.492112 3.920633
v -0.000060 -0.492112 3.920633
v -0.000060 -0.947113 3.725633
v -0.000060 -0.947113 3.725633
v -0.000060 -0.947113 3.725633
v -0.000060 -0.492112 3.920633
v -0.000060 -0.492112 3.920633
v -0.000060 -0.947113 3.725633
v -0.000060 -0.947113 3.725633
v -0.000060 -0.947113 3.725633
v -0.000060 -0.947113 3.725633
v -0.000060 -0.947113 3.725633
v -0.000060 -0.947113 3.725633
v -0.000060 -0.492112 3.920633
v -0.000060 -0.492112 3.920633
v -0.000060 -0.947113 3.725633
v -0.000060 -1.275919 4.036685
v -1.660207 1.081080 -0.803359
v -1.660207 2.081229 -0.943358
v -1.913221 2.081229 -0.943358
vt 0.594119 0.459252
vt 0.461360 0.015885
vt 0.452149 0.469425
vt 0.354102 0.928720
vt 0.414321 0.726051
vt 0.414321 0.945408
vt 0.828390 0.430198
vt 0.718058 0.352966
vt 0.714268 0.430198
vt 0.227670 0.773977
vt 0.227670 0.908183
vt 0.128625 0.822589
vt 0.127554 0.898781
vt 0.000536 0.843615
vt 0.000536 0.844006
vt 0.408233 0.647030
vt 0.205249 0.561928
vt 0.408233 0.477087
vt 0.862250 0.746433
vt 0.856948 0.820735
vt 0.833341 0.746200
vt 0.713197 0.753958
vt 0.644311 0.832311
vt 0.713197 0.875293
vt 0.713197 0.676725
vt 0.623813 0.756360
vt 0.000536 0.772905
vt 0.243265 0.648101
vt 0.243265 0.772906
vt 0.204178 0.647030
vt 0.000536 0.559109
vt 0.017259 0.622456
vt 0.761004 0.647151
vt 0.829461 0.526188
vt 0.944786 0.352966
vt 0.944786 0.529482
vt 0.974791 0.331716
vt 0.926474 0.262379
vt 0.974926 0.243451
vt 0.975182 0.331717
vt 0.975182 0.243451
vt 0.595190 0.565520
vt 0.713197 0.643704
vt 0.658473 0.675654
vt 0.703228 0.893106
vt 0.703228 0.941528
vt 0.452149 0.894089
vt 0.452149 0.612545
vt 0.586484 0.681310
vt 0.586484 0.470496
vt 0.925403 0.211100
vt 0.856518 0.000536
vt 0.866272 0.204353
vt 0.733601 0.339296
vt 0.808217 0.348135
vt 0.808217 0.228423
vt 0.451078 0.378246
vt 0.277525 0.424266
vt 0.281522 0.181183
vt 0.451078 0.000536
vt 0.810628 0.946764
vt 0.780719 0.998970
vt 0.773072 0.946141
vt 0.888170 0.274305
vt 0.925403 0.271798
vt 0.911159 0.602363
vt 0.851419 0.541320
vt 0.829461 0.587396
vt 0.810628 0.869344
vt 0.768798 0.868650
vt 0.903845 0.946716
vt 0.886317 0.889849
vt 0.868737 0.948035
vt 0.277525 0.474929
vt 0.351649 0.437183
vt 0.289596 0.425337
vt 0.894507 0.822970
vt 0.886470 0.888777
vt 0.896692 0.343711
vt 0.925403 0.341204
vt 0.405728 0.454157
vt 0.352721 0.429396
vt 0.355308 0.449755
vt 0.912230 0.531609
vt 0.942041 0.576014
vt 0.922343 0.572697
vt 0.594119 0.000536
vt 0.411113 0.648101
vt 0.855447 0.219892
vt 0.733601 0.227351
vt 0.776450 0.026828
vt 0.828390 0.352966
vt 0.000536 0.657533
vt 0.602205 0.892034
vt 0.452149 0.736634
vt 0.602205 0.726793
vt 0.906158 0.648222
vt 0.127554 0.773977
vt 0.221315 0.622456
vt 0.925403 0.001468
vt 0.412094 0.570192
vt 0.451078 0.446710
vt 0.412094 0.425337
vt 0.846127 0.337083
vt 0.809288 0.248669
vt 0.846127 0.228423
vt 0.945857 0.375611
vt 0.997910 0.352966
vt 0.997910 0.568988
vt 0.907229 0.830189
vt 0.963108 0.648223
vt 0.963108 0.899303
vt 0.867666 0.968164
vt 0.833341 0.942193
vt 0.867666 0.889849
vt 0.204178 0.477087
vt 0.718058 0.647151
vt 0.930341 0.325752
vt 0.713197 0.352966
vt 0.962852 0.648222
vt 0.510205 0.725722
vt 0.595190 0.251803
vt 0.732530 0.000536
vt 0.732530 0.351894
vt 0.276453 0.000536
vt 0.276453 0.476015
vt 0.000536 0.218073
vt 0.810545 0.999464
vt 0.911159 0.530554
vt 0.903845 0.890952
vt 0.351649 0.472316
vt 0.906158 0.885061
vt 0.590376 0.686168
vt 0.602608 0.676725
vt 0.602608 0.701471
vt 0.811699 0.871624
vt 0.831513 0.868650
vt 0.831513 0.924344
vt 0.405728 0.425337
vt 0.942041 0.530554
vt 0.439404 0.579476
vt 0.439204 0.598169
vt 0.439204 0.598169
vt 0.439204 0.598169
vt 0.439204 0.598169
vt 0.439204 0.598169
vt 0.417151 0.858661
vt 0.446834 0.792871
vt 0.446834 0.898820
vt 0.446834 0.685851
vt 0.417151 0.751641
vt 0.446834 0.791800
vt 0.417151 0.858661
vt 0.767727 0.868650
vt 0.767727 0.987872
vt 0.714268 0.968783
vt 0.855447 0.000536
vt 0.603679 0.843309
vt 0.622742 0.697119
vt 0.603679 0.676725
vt 0.353031 0.922511
vt 0.242683 0.922511
vt 0.353031 0.894596
vt 0.832269 0.867579
vt 0.714268 0.750312
vt 0.718535 0.861654
vt 0.982602 0.000536
vt 0.982602 0.242380
vt 0.926474 0.146125
vt 0.353031 0.648101
vt 0.244337 0.838508
vt 0.353031 0.893525
vt 0.594119 0.459252
vt 0.354102 0.928720
vt 0.414321 0.945408
vt 0.414321 0.726051
vt 0.714268 0.430198
vt 0.718058 0.352966
vt 0.128625 0.822589
vt 0.227670 0.908183
vt 0.000536 0.844006
vt 0.000536 0.843615
vt 0.408233 0.647030
vt 0.408233 0.477087
vt 0.205249 0.561928
vt 0.862250 0.746433
vt 0.833341 0.746200
vt 0.856948 0.820735
vt 0.644311 0.832311
vt 0.623813 0.756360
vt 0.243265 0.648101
vt 0.017259 0.622456
vt 0.000536 0.559109
vt 0.761004 0.647151
vt 0.944786 0.529482
vt 0.944786 0.352966
vt 0.974791 0.331716
vt 0.974926 0.243451
vt 0.926474 0.262379
vt 0.975182 0.331717
vt 0.975182 0.243451
vt 0.595190 0.565520
vt 0.658473 0.675654
vt 0.713197 0.643704
vt 0.703228 0.893106
vt 0.452149 0.894089
vt 0.703228 0.941528
vt 0.586484 0.681310
vt 0.866272 0.204353
vt 0.856518 0.000536
vt 0.733601 0.339296
vt 0.808217 0.348135
vt 0.417151 0.858661
vt 0.451078 0.378246
vt 0.281522 0.181183
vt 0.277525 0.424266
vt 0.451078 0.000536
vt 0.810628 0.946764
vt 0.773072 0.946141
vt 0.780719 0.998970
vt 0.888170 0.274305
vt 0.911159 0.602363
vt 0.829461 0.587396
vt 0.810628 0.869344
vt 0.768798 0.868650
vt 0.868737 0.948035
vt 0.886317 0.889849
vt 0.289596 0.425337
vt 0.351649 0.437183
vt 0.894507 0.822970
vt 0.886470 0.888777
vt 0.896692 0.343711
vt 0.352721 0.429396
vt 0.912230 0.531609
vt 0.922343 0.572697
vt 0.942041 0.576014
vt 0.594119 0.000536
vt 0.411113 0.648101
vt 0.855447 0.219892
vt 0.776450 0.026828
vt 0.733601 0.227351
vt 0.000536 0.657533
vt 0.602205 0.726793
vt 0.452149 0.736634
vt 0.127554 0.773977
vt 0.221315 0.622456
vt 0.412094 0.570192
vt 0.412094 0.425337
vt 0.451078 0.446710
vt 0.846127 0.228423
vt 0.809288 0.248669
vt 0.997910 0.352966
vt 0.963108 0.899303
vt 0.963108 0.648223
vt 0.867666 0.968164
vt 0.867666 0.889849
vt 0.833341 0.942193
vt 0.718058 0.647151
vt 0.930341 0.325752
vt 0.713197 0.352966
vt 0.962852 0.648222
vt 0.510205 0.725722
vt 0.595190 0.251803
vt 0.732530 0.351894
vt 0.732530 0.000536
vt 0.276453 0.000536
vt 0.000536 0.218073
vt 0.276453 0.476015
vt 0.810545 0.999464
vt 0.906158 0.885061
vt 0.590376 0.686168
vt 0.602608 0.701471
vt 0.811699 0.871624
vt 0.831513 0.924344
vt 0.831513 0.868650
vt 0.405728 0.425337
vt 0.942041 0.530554
vt 0.439204 0.598169
vt 0.439204 0.598169
vt 0.451078 0.571264
vt 0.451078 0.684780
vt 0.417151 0.648136
vt 0.439204 0.598169
vt 0.417151 0.648136
vt 0.439404 0.579476
vt 0.439204 0.598169
vt 0.439204 0.598169
vt 0.406800 0.425337
vt 0.406800 0.425337
vt 0.406800 0.425337
vt 0.439204 0.598169
vt 0.439204 0.598169
vt 0.406800 0.425337
vt 0.406800 0.425337
vt 0.406800 0.425337
vt 0.406800 0.425337
vt 0.406800 0.425337
vt 0.406800 0.425337
vt 0.406800 0.425337
vt 0.406800 0.425337
vt 0.406800 0.425337
vt 0.446834 0.792871
vt 0.446834 0.685851
vt 0.767727 0.987872
vt 0.855447 0.000536
vt 0.603679 0.843309
vt 0.603679 0.676725
vt 0.622742 0.697119
vt 0.353031 0.922511
vt 0.353031 0.894596
vt 0.242683 0.922511
vt 0.832269 0.867579
vt 0.714268 0.750312
vt 0.832269 0.648222
vt 0.982602 0.000536
vt 0.926474 0.146125
vt 0.982602 0.242380
vt 0.353031 0.648101
vt 0.353031 0.893525
vt 0.244337 0.838508
vt 0.832269 0.648222
vt 0.718535 0.861654
vn 0.5184 0.8412 0.1537
vn 0.8212 0.0212 -0.5702
vn 0.0000 -0.1414 -0.9899
vn -0.0000 -0.9869 0.1612
vn 0.0000 0.0533 -0.9986
vn 0.9997 -0.0195 -0.0121
vn 0.8666 -0.4119 0.2817
vn 0.2912 0.8248 -0.4846
vn 0.3765 0.9249 0.0536
vn 0.0000 -0.9797 -0.2004
vn -0.6679 -0.5889 0.4550
vn 0.0000 -0.1531 -0.9882
vn 0.0000 -0.3522 0.9359
vn 0.0000 -1.0000 0.0000
vn 0.9792 -0.1937 -0.0612
vn 0.3300 -0.4287 0.8410
vn -0.9351 -0.3401 0.1000
vn 0.6073 0.0582 -0.7923
vn 0.2985 0.9533 -0.0453
vn 0.8936 -0.1905 0.4065
vn 0.9974 -0.0524 -0.0495
vn 0.0900 -0.5594 0.8240
vn 0.2979 0.0109 -0.9545
vn -0.9999 0.0153 0.0033
vn 0.0908 -0.3666 0.9259
vn -0.9993 -0.0034 -0.0359
vn -0.9999 0.0136 0.0021
vn 0.9918 -0.0863 -0.0942
vn 0.3782 0.3265 -0.8662
vn 0.5984 0.3363 -0.7272
vn 0.1738 -0.6782 0.7141
vn 0.3252 0.9138 0.2434
vn 0.9061 -0.0159 -0.4227
vn 0.9204 -0.0010 -0.3910
vn 0.3864 0.5285 0.7559
vn 0.8593 -0.2263 0.4587
vn 0.9996 -0.0289 0.0009
vn 0.9972 -0.0503 -0.0549
vn 0.5256 0.1019 -0.8446
vn 0.3233 0.8276 -0.4589
vn 0.1314 -0.0192 -0.9911
vn 0.0378 -0.9221 0.3851
vn 0.2460 0.5241 0.8153
vn 0.2104 -0.4435 0.8712
vn -0.0020 -0.9995 0.0302
vn -0.9494 -0.3059 -0.0714
vn 0.0663 -0.1667 -0.9838
vn 0.9494 -0.0040 0.3141
vn 0.0000 -0.5031 0.8642
vn -0.9182 -0.3960 0.0014
vn 0.9978 -0.0619 -0.0220
vn 0.9968 -0.0691 -0.0392
vn 0.1139 -0.5492 0.8279
vn 0.5840 0.2088 -0.7844
vn -0.9999 -0.0002 0.0135
vn 0.1012 -0.3620 0.9267
vn -0.9996 -0.0117 0.0253
vn -0.9995 0.0112 -0.0298
vn 0.9910 -0.1116 -0.0736
vn 0.3018 0.3035 -0.9038
vn 0.1546 -0.8668 -0.4740
vn 0.9879 -0.1296 -0.0855
vn 0.3803 0.2817 -0.8809
vn 0.1025 -0.6588 0.7453
vn 0.0000 0.0000 1.0000
vn 0.7464 -0.4573 -0.4835
vn -0.7464 0.4573 0.4835
vn 0.2036 0.0105 0.9790
vn 0.9561 0.0628 -0.2863
vn 0.0000 0.9988 -0.0487
vn 0.0000 0.1386 0.9903
vn -0.7707 0.0883 0.6311
vn 0.9051 -0.2744 -0.3248
vn 0.6830 -0.0083 -0.7303
vn -0.5184 0.8412 0.1537
vn -0.8212 0.0212 -0.5702
vn -0.9997 -0.0195 -0.0121
vn -0.8666 -0.4119 0.2817
vn -0.2912 0.8248 -0.4846
vn -0.3765 0.9249 0.0536
vn 0.6679 -0.5889 0.4550
vn -0.9792 -0.1937 -0.0612
vn -0.3300 -0.4287 0.8410
vn 0.9351 -0.3401 0.1000
vn -0.6073 0.0582 -0.7923
vn -0.2985 0.9533 -0.0453
vn -0.8936 -0.1905 0.4065
vn -0.9974 -0.0524 -0.0495
vn -0.0900 -0.5594 0.8240
vn -0.2979 0.0109 -0.9545
vn 0.9999 0.0153 0.0033
vn -0.0908 -0.3666 0.9259
vn 0.9993 -0.0034 -0.0359
vn 0.9999 0.0136 0.0021
vn -0.9918 -0.0863 -0.0942
vn -0.3782 0.3265 -0.8662
vn -0.5984 0.3363 -0.7272
vn -0.1738 -0.6782 0.7141
vn -0.3252 0.9138 0.2434
vn -0.9061 -0.0159 -0.4227
vn -0.9204 -0.0010 -0.3910
vn -0.3864 0.5285 0.7559
vn -0.8593 -0.2263 0.4587
vn -0.9996 -0.0289 0.0009
vn -0.9972 -0.0503 -0.0549
vn -0.5256 0.1019 -0.8446
vn -0.3233 0.8276 -0.4589
vn -0.1314 -0.0192 -0.9911
vn -0.0378 -0.9221 0.3851
vn -0.2460 0.5241 0.8153
vn -0.2104 -0.4435 0.8712
vn 0.0020 -0.9995 0.0302
vn 0.9494 -0.3059 -0.0714
vn -0.0663 -0.1667 -0.9838
vn -0.9494 -0.0040 0.3141
vn 0.0000 -0.5032 0.8642
vn 0.9182 -0.3960 0.0014
vn -0.9978 -0.0619 -0.0220
vn -0.9968 -0.0691 -0.0392
vn -0.1139 -0.5492 0.8279
vn -0.5840 0.2088 -0.7844
vn 0.9999 -0.0002 0.0135
vn -0.1012 -0.3620 0.9267
vn 0.9996 -0.0117 0.0253
vn 0.9995 0.0112 -0.0298
vn -0.9910 -0.1116 -0.0736
vn -0.3018 0.3035 -0.9038
vn -0.1546 -0.8668 -0.4740
vn -0.9879 -0.1296 -0.0855
vn -0.3803 0.2817 -0.8809
vn -0.1025 -0.6588 0.7453
vn 1.0000 0.0000 -0.0000
vn -0.7464 -0.4573 -0.4835
vn 0.7464 0.4573 0.4835
vn -0.2036 0.0105 0.9790
vn -0.9561 0.0628 -0.2863
vn 0.8168 -0.0201 0.5766
vn -0.9051 -0.2744 -0.3248
vn -0.6830 -0.0083 -0.7303
vn -0.8168 -0.0201 0.5766
vn 0.7707 0.0883 0.6311
s off
f 9/1/1 35/2/1 33/3/1
f 21/4/2 5/5/2 6/6/2
f 36/7/3 5/8/3 4/9/3
f 38/10/4 7/11/4 5/12/4
f 34/13/5 20/14/5 16/15/5
f 3/16/6 14/17/6 4/18/6
f 12/19/7 23/20/7 7/21/7
f 37/22/8 8/23/8 39/24/8
f 35/25/9 6/26/9 37/22/9
f 42/27/10 2/28/10 34/29/10
f 42/30/11 15/31/11 13/32/11
f 4/9/12 15/33/12 36/7/12
f 42/34/13 13/35/13 3/36/13
f 20/37/14 19/38/14 11/39/14
f 16/40/14 11/39/14 17/41/14
f 2/42/15 19/43/15 18/44/15
f 11/45/16 19/46/16 10/47/16
f 34/48/17 17/49/17 44/50/17
f 41/51/18 8/52/18 7/53/18
f 21/54/19 6/55/19 35/56/19
f 9/57/20 10/58/20 2/59/20
f 9/57/21 2/59/21 3/60/21
f 22/61/22 27/62/22 24/63/22
f 41/51/23 23/64/23 67/65/23
f 1/66/24 67/67/24 22/68/24
f 1/69/25 24/63/25 12/70/25
f 71/71/26 28/72/26 25/73/26
f 67/74/27 25/75/27 22/76/27
f 24/77/28 26/78/28 23/20/28
f 67/65/29 26/79/29 71/80/29
f 71/81/30 29/82/30 75/83/30
f 27/84/31 28/85/31 29/86/31
f 9/1/32 21/87/32 35/2/32
f 21/4/33 4/88/33 5/5/33
f 5/89/34 7/90/34 8/91/34
f 36/7/3 38/92/3 5/8/3
f 42/27/10 3/93/10 2/28/10
f 33/94/35 10/95/35 9/96/35
f 38/97/36 12/19/36 7/21/36
f 34/13/5 2/98/5 20/14/5
f 3/16/37 13/99/37 14/17/37
f 12/19/38 24/77/38 23/20/38
f 41/51/39 39/100/39 8/52/39
f 37/22/40 6/26/40 8/23/40
f 2/101/41 18/102/41 20/103/41
f 38/104/42 1/105/42 12/106/42
f 43/107/43 10/108/43 33/109/43
f 44/110/44 11/111/44 10/112/44
f 15/113/45 14/114/45 13/115/45
f 42/30/46 36/116/46 15/31/46
f 4/9/47 14/117/47 15/33/47
f 20/37/14 18/118/14 19/38/14
f 16/40/14 20/37/14 11/39/14
f 2/42/48 10/119/48 19/43/48
f 44/110/49 17/120/49 11/111/49
f 34/48/50 16/121/50 17/49/50
f 4/122/51 21/123/51 3/124/51
f 21/125/52 9/126/52 3/127/52
f 22/61/53 25/128/53 27/62/53
f 41/51/54 7/53/54 23/64/54
f 1/66/55 41/129/55 67/67/55
f 1/69/56 22/61/56 24/63/56
f 71/71/57 75/130/57 28/72/57
f 67/74/58 71/131/58 25/75/58
f 24/77/59 27/132/59 26/78/59
f 67/65/60 23/64/60 26/79/60
f 28/133/61 75/134/61 29/135/61
f 26/136/62 27/137/62 29/138/62
f 71/81/63 26/139/63 29/82/63
f 27/84/64 25/140/64 28/85/64
f 10/141/65 78/142/65 82/143/65
f 10/141/65 82/143/65 85/144/65
f 10/141/65 85/144/65 90/145/65
f 10/141/65 90/145/65 98/146/65
f 99/147/66 10/148/66 100/149/66
f 10/150/67 79/151/67 100/152/67
f 44/153/65 10/148/65 99/147/65
f 100/154/68 10/155/68 43/156/68
f 5/89/69 8/91/69 6/157/69
f 6/158/70 31/159/70 32/160/70
f 31/161/71 30/162/71 32/163/71
f 6/164/72 30/165/72 31/166/72
f 5/167/73 32/168/73 30/169/73
f 5/170/74 6/171/74 32/172/74
f 52/173/75 33/3/75 35/2/75
f 64/174/76 49/175/76 48/176/76
f 36/7/3 47/177/3 48/178/3
f 38/10/4 48/179/4 50/180/4
f 34/13/5 59/181/5 63/182/5
f 46/183/77 47/184/77 57/185/77
f 55/186/78 50/187/78 68/188/78
f 37/22/79 39/24/79 51/189/79
f 35/25/80 37/22/80 49/190/80
f 42/27/10 34/29/10 45/191/10
f 42/30/81 56/192/81 58/193/81
f 47/177/12 36/7/12 58/194/12
f 42/34/13 46/195/13 56/196/13
f 63/197/14 54/198/14 62/199/14
f 59/200/14 60/201/14 54/198/14
f 45/202/82 61/203/82 62/204/82
f 54/205/83 53/206/83 62/207/83
f 34/48/84 44/50/84 60/208/84
f 41/51/85 50/209/85 51/210/85
f 64/211/86 35/56/86 49/212/86
f 79/213/65 99/147/65 44/153/65
f 52/214/87 45/215/87 53/216/87
f 52/214/88 46/217/88 45/215/88
f 66/218/89 69/219/89 73/220/89
f 41/51/90 67/65/90 68/221/90
f 40/222/91 66/223/91 67/67/91
f 40/224/92 55/225/92 69/219/92
f 71/71/93 70/226/93 74/227/93
f 67/74/94 66/228/94 70/229/94
f 69/230/95 68/188/95 72/231/95
f 67/65/96 71/80/96 72/232/96
f 71/81/97 75/83/97 76/233/97
f 73/234/98 76/235/98 74/236/98
f 52/173/99 35/2/99 64/237/99
f 64/174/100 48/176/100 47/238/100
f 48/239/101 51/240/101 50/241/101
f 36/7/3 48/178/3 38/92/3
f 42/27/10 45/191/10 46/242/10
f 33/94/102 52/243/102 53/244/102
f 38/97/103 50/187/103 55/186/103
f 34/13/5 63/182/5 45/245/5
f 46/183/104 57/185/104 56/246/104
f 55/186/105 68/188/105 69/230/105
f 41/51/106 51/210/106 39/100/106
f 37/22/107 51/189/107 49/190/107
f 45/247/108 63/248/108 61/249/108
f 38/104/109 55/250/109 40/251/109
f 43/107/110 33/109/110 53/252/110
f 44/110/111 53/253/111 54/254/111
f 58/255/112 56/256/112 57/257/112
f 42/30/113 58/193/113 36/116/113
f 47/177/114 58/194/114 57/258/114
f 63/197/14 62/199/14 61/259/14
f 59/200/14 54/198/14 63/197/14
f 45/202/115 62/204/115 53/260/115
f 44/110/116 54/254/116 60/261/116
f 34/48/117 60/208/117 59/262/117
f 47/263/118 46/264/118 64/265/118
f 64/266/119 46/267/119 52/268/119
f 66/218/120 73/220/120 70/269/120
f 41/51/121 68/221/121 50/209/121
f 40/222/122 67/67/122 41/129/122
f 40/224/123 69/219/123 66/218/123
f 71/71/124 74/227/124 75/130/124
f 67/74/125 70/229/125 71/131/125
f 69/230/126 72/231/126 73/270/126
f 67/65/127 72/232/127 68/221/127
f 74/271/128 76/272/128 75/134/128
f 72/273/129 76/274/129 73/275/129
f 71/81/130 76/233/130 72/276/130
f 73/234/131 74/236/131 70/277/131
f 77/278/65 78/142/65 65/279/65
f 43/280/65 77/278/65 65/279/65
f 78/142/132 100/281/132 79/282/132
f 43/280/65 80/283/65 77/278/65
f 65/279/65 79/282/65 44/284/65
f 53/285/65 82/143/65 78/142/65
f 65/279/65 81/286/65 43/280/65
f 65/279/65 82/143/65 78/142/65
f 81/286/65 85/144/65 82/143/65
f 53/285/65 85/144/65 82/143/65
f 81/286/65 84/287/65 43/280/65
f 86/288/65 95/289/65 87/290/65
f 53/285/65 90/145/65 85/144/65
f 84/287/65 89/291/65 43/280/65
f 84/287/65 90/145/65 85/144/65
f 89/291/65 97/292/65 43/280/65
f 92/293/65 94/294/65 91/295/65
f 91/295/65 96/296/65 93/297/65
f 88/298/65 94/294/65 86/288/65
f 79/299/65 91/295/65 44/300/65
f 89/291/65 98/146/65 90/145/65
f 53/285/65 98/146/65 90/145/65
f 87/290/65 92/293/65 79/299/65
f 83/301/65 96/296/65 88/298/65
f 44/300/65 93/297/65 83/301/65
f 99/147/133 100/149/133 53/302/133
f 53/303/134 100/152/134 79/151/134
f 44/153/65 99/147/65 53/302/65
f 100/154/135 43/156/135 53/304/135
f 80/283/65 100/281/65 78/142/65
f 43/280/132 100/281/132 80/283/132
f 48/239/136 49/305/136 51/240/136
f 49/306/70 103/307/70 102/308/70
f 102/309/71 103/310/71 101/311/71
f 49/312/137 101/313/137 48/314/137
f 48/315/138 101/316/138 103/317/138
f 48/318/139 103/319/139 49/320/139
f 6/164/140 5/321/140 30/165/140
f 79/213/65 100/149/65 99/147/65
f 77/278/65 80/283/65 78/142/65
f 65/279/65 78/142/65 79/282/65
f 65/279/65 81/286/65 82/143/65
f 81/286/65 84/287/65 85/144/65
f 86/288/65 94/294/65 95/289/65
f 84/287/65 89/291/65 90/145/65
f 92/293/65 95/289/65 94/294/65
f 91/295/65 94/294/65 96/296/65
f 88/298/65 96/296/65 94/294/65
f 79/299/65 92/293/65 91/295/65
f 89/291/65 97/292/65 98/146/65
f 87/290/65 95/289/65 92/293/65
f 83/301/65 93/297/65 96/296/65
f 44/300/65 91/295/65 93/297/65
f 49/312/141 102/322/141 101/313/141
