# Blender v2.79 (sub 0) OBJ File: ''
# www.blender.org
o Cube
v 0.309103 -0.489819 -0.309102
v 0.309103 -0.489819 0.309103
v -0.309103 -0.489819 0.309102
v -0.309102 -0.489819 -0.309103
v 0.309103 0.128386 -0.309102
v 0.309102 0.128386 0.309103
v -0.309103 0.128386 0.309102
v -0.309103 0.128386 -0.309103
v 0.309103 0.128386 -0.309102
v 0.309102 0.128386 0.309103
v -0.309103 0.128386 0.309102
v -0.309103 0.128386 -0.309103
v 0.309103 2.459277 -0.309102
v 0.309102 2.459277 0.309103
v -0.309103 2.459277 0.309102
v -0.309103 2.459277 -0.309103
v 0.150108 5.327112 -0.150107
v 0.150107 5.327112 0.150108
v -0.150108 5.327112 0.150108
v -0.150108 5.327112 -0.150108
v 0.263424 5.407847 -0.263424
v 0.263424 5.407847 0.263424
v -0.263424 5.407847 0.263424
v -0.263424 5.407847 -0.263424
v 0.568334 5.690295 -0.568334
v 0.568334 5.690295 0.568334
v -0.568334 5.690295 0.568334
v -0.568334 5.690295 -0.568334
v 0.253808 6.791174 -0.253808
v 0.253808 6.791174 0.253808
v -0.253808 6.791174 0.253808
v -0.253808 6.791174 -0.253808
v 0.083398 7.022696 -0.083398
v 0.083398 7.022696 0.083398
v -0.083398 7.022696 0.083398
v -0.083398 7.022696 -0.083398
vt 0.873197 0.482241
vt 0.745512 0.601265
vt 0.745512 0.482241
vt 0.000000 0.000000
vt 0.000000 0.000000
vt 0.000000 0.000000
vt 0.872756 0.720288
vt 1.000000 0.601265
vt 1.000000 0.720288
vt 0.745512 0.839312
vt 0.872756 0.720288
vt 0.872756 0.839312
vt 0.745512 0.601265
vt 0.872756 0.720288
vt 0.745512 0.720288
vt 0.637986 0.790192
vt 0.510742 0.909215
vt 0.510742 0.790192
vt 0.127685 0.000000
vt 0.000000 0.447218
vt 0.000000 0.000000
vt 0.000000 0.000000
vt 0.000000 0.000000
vt 0.000000 0.000000
vt 0.000000 0.000000
vt 0.255371 0.447218
vt 0.160525 1.000000
vt 0.127685 0.447218
vt 0.255371 0.000000
vt 0.127685 0.000000
vt 0.383056 0.000000
vt 0.255371 0.447218
vt 0.255371 0.000000
vt 0.510742 0.000000
vt 0.383056 0.447218
vt 0.893900 0.401719
vt 0.808489 0.423536
vt 0.831893 0.401719
vt 0.350217 1.000000
vt 0.288210 1.000000
vt 0.510742 0.447218
vt 0.415896 1.000000
vt 0.127685 0.447218
vt 0.032839 1.000000
vt 0.745512 0.263397
vt 0.808488 0.322102
vt 0.893900 0.343919
vt 0.917305 0.423536
vt 0.831893 0.343919
vt 0.917305 0.322102
vt 0.510742 0.526794
vt 0.680549 0.310543
vt 0.745512 0.526794
vt 0.980282 0.263397
vt 0.745512 0.482241
vt 0.980282 0.482241
vt 0.610901 0.263397
vt 0.645352 0.263397
vt 0.745512 0.263397
vt 0.915318 0.047146
vt 0.980281 0.263397
vt 0.510742 0.790192
vt 0.680549 0.573941
vt 0.745512 0.790192
vt 0.510742 0.263397
vt 0.680549 0.047146
vt 0.672436 0.790192
vt 0.637986 0.822305
vt 0.637986 0.790192
vt 0.810475 0.047146
vt 0.880122 0.000000
vt 0.575705 0.573941
vt 0.645352 0.526794
vt 0.610901 0.000000
vt 0.645352 0.000000
vt 0.873197 0.601265
vt 0.872756 0.601265
vt 0.745512 0.720288
vt 0.872756 0.601265
vt 0.637986 0.909215
vt 0.222532 1.000000
vt 0.477903 1.000000
vt 0.094846 1.000000
vt 0.575705 0.310543
vt 0.575705 0.047146
vt 0.672436 0.822305
vt 0.845671 0.000000
vt 0.610901 0.526794
vn 0.0000 -1.0000 0.0000
vn 0.0000 0.0000 1.0000
vn 1.0000 -0.0000 0.0000
vn -1.0000 -0.0000 -0.0000
vn 0.0000 0.0000 -1.0000
vn 0.0000 0.0554 -0.9985
vn -0.0000 -0.8144 0.5803
vn -0.0000 0.0554 0.9985
vn 0.9985 0.0554 0.0000
vn -0.9985 0.0554 -0.0000
vn -0.6796 -0.7336 0.0000
vn 0.5803 -0.8144 0.0000
vn -0.5803 -0.8144 0.0000
vn 0.0000 -0.8144 -0.5803
vn -0.0000 0.2747 0.9615
vn 0.0000 -0.7336 -0.6796
vn -0.0000 -0.7336 0.6796
vn 0.6796 -0.7336 0.0000
vn -0.0000 0.5928 0.8054
vn 0.9615 0.2747 0.0000
vn -0.9615 0.2747 0.0000
vn 0.0000 0.2747 -0.9615
vn 0.0000 1.0000 0.0000
vn 0.8054 0.5928 -0.0000
vn -0.8054 0.5928 0.0000
vn 0.0000 0.5928 -0.8054
s off
f 2/1/1 4/2/1 1/3/1
f 7/4/2 10/5/2 11/6/2
f 5/7/3 2/8/3 1/9/3
f 6/10/2 3/11/2 2/12/2
f 3/13/4 8/14/4 4/15/4
f 1/16/5 8/17/5 5/18/5
f 11/19/4 16/20/4 12/21/4
f 6/22/2 9/23/2 10/5/2
f 8/24/2 11/6/2 12/21/2
f 5/25/2 12/21/2 9/23/2
f 16/26/6 17/27/6 13/28/6
f 12/29/5 13/28/5 9/30/5
f 10/31/2 15/32/2 11/33/2
f 9/34/3 14/35/3 10/31/3
f 18/36/7 23/37/7 19/38/7
f 15/32/8 18/39/8 19/40/8
f 13/41/9 18/42/9 14/35/9
f 15/43/10 20/44/10 16/20/10
f 23/37/11 28/45/11 24/46/11
f 17/47/12 22/48/12 18/36/12
f 19/38/13 24/46/13 20/49/13
f 17/47/14 24/46/14 21/50/14
f 26/51/15 31/52/15 27/53/15
f 24/46/16 25/54/16 21/50/16
f 22/48/17 27/55/17 23/37/17
f 21/50/18 26/56/18 22/48/18
f 31/52/19 34/57/19 35/58/19
f 25/59/20 30/60/20 26/61/20
f 27/62/21 32/63/21 28/64/21
f 28/65/22 29/66/22 25/59/22
f 33/67/23 35/68/23 34/69/23
f 29/70/24 34/71/24 30/60/24
f 31/72/25 36/73/25 32/63/25
f 29/66/26 36/74/26 33/75/26
f 2/1/1 3/76/1 4/2/1
f 7/4/2 6/22/2 10/5/2
f 5/7/3 6/77/3 2/8/3
f 6/10/2 7/78/2 3/11/2
f 3/13/4 7/79/4 8/14/4
f 1/16/5 4/80/5 8/17/5
f 11/19/4 15/43/4 16/20/4
f 6/22/2 5/25/2 9/23/2
f 8/24/2 7/4/2 11/6/2
f 5/25/2 8/24/2 12/21/2
f 16/26/6 20/81/6 17/27/6
f 12/29/5 16/26/5 13/28/5
f 10/31/2 14/35/2 15/32/2
f 9/34/3 13/41/3 14/35/3
f 18/36/7 22/48/7 23/37/7
f 15/32/8 14/35/8 18/39/8
f 13/41/9 17/82/9 18/42/9
f 15/43/10 19/83/10 20/44/10
f 23/37/11 27/55/11 28/45/11
f 17/47/12 21/50/12 22/48/12
f 19/38/13 23/37/13 24/46/13
f 17/47/14 20/49/14 24/46/14
f 26/51/15 30/84/15 31/52/15
f 24/46/16 28/45/16 25/54/16
f 22/48/17 26/56/17 27/55/17
f 21/50/18 25/54/18 26/56/18
f 31/52/19 30/84/19 34/57/19
f 25/59/20 29/70/20 30/60/20
f 27/62/21 31/72/21 32/63/21
f 28/65/22 32/85/22 29/66/22
f 33/67/23 36/86/23 35/68/23
f 29/70/24 33/87/24 34/71/24
f 31/72/25 35/88/25 36/73/25
f 29/66/26 32/85/26 36/74/26
